<svg id="Layer_1" data-name="Layer 1" xmlns="http://www.w3.org/2000/svg" viewBox="0 0 258.92 477.06"><defs><style>.cls-1{fill:#fff;}</style></defs><title>metronome</title><path class="cls-1" d="M89.57,0A35.16,35.16,0,0,0,54.86,30.27L46.13,92.81,42.4,119.59l13.76,27.35,7.52-54.13h131.4L227,321.62H125.17L113,297.43l4.78-2.52a4.85,4.85,0,0,0,2.59-5.34l-4.21-19.41a4.88,4.88,0,0,0-7-3.4l-9.38,4.77L22,117.89a8.73,8.73,0,0,0-11.73-3.81,8.63,8.63,0,0,0-3.8,11.65L84.23,279.3l-9.3,4.77a4.88,4.88,0,0,0-1.46,7.61l13.19,14.8a5,5,0,0,0,5.9,1.13l4.78-2.42,8.33,16.34H32l11.74-84L29.94,210.2,14.41,321.53h-.07L.34,422.91a34.76,34.76,0,0,0,31.31,39.56v.18a14.38,14.38,0,0,0,14.4,14.41H63.37a14.39,14.39,0,0,0,14.32-14.24h103A14.34,14.34,0,0,0,195,477.06h17.31a14.43,14.43,0,0,0,14.4-14.41v-.18a34.81,34.81,0,0,0,31.88-39.56l-14.08-101.3L212.72,92.8,204,30.26A35.25,35.25,0,0,0,169.2,0H89.57Z" transform="translate(0 0)"/></svg>